<?xml version="1.0" encoding="utf-8"?>
<!-- Generator: Adobe Illustrator 24.0.1, SVG Export Plug-In . SVG Version: 6.00 Build 0)  -->
<svg version="1.1" id="Layer_1" xmlns="http://www.w3.org/2000/svg" xmlns:xlink="http://www.w3.org/1999/xlink" x="0px" y="0px"
	 viewBox="0 0 32 32" style="enable-background:new 0 0 32 32;" xml:space="preserve">
<path d="M29.2,7.7l-0.5,0.4l-0.6,0.5L28,8.7l-2,1.7V10c0-1.1-0.6-2-1.4-2.6L28,4l-1.4-1.4L22.2,7H5c-1.7,0-3,1.3-3,3v12
	c0,1.4,1,2.6,2.3,2.9l-1.7,1.7L4,28l3-3h16c1.7,0,3-1.3,3-3v-0.3l2,1.7l0.1,0.1l0.6,0.5l0.5,0.4c0.3,0.3,0.8,0,0.8-0.4v-0.6v-0.8
	v-0.1V9.6V9.5V8.7V8.1C30,7.6,29.5,7.4,29.2,7.7z M6.2,23H5c-0.6,0-1-0.4-1-1V10c0-0.6,0.4-1,1-1h15.2L6.2,23z M24,12v8v2
	c0,0.6-0.4,1-1,1H9L23,9c0.6,0,1,0.4,1,1V12z M28,20.7l-2-1.7v-6.1l2-1.7V20.7z"/>
</svg>
