<svg width="32" height="32" viewBox="0 0 32 32" fill="none" xmlns="http://www.w3.org/2000/svg">
<path d="M25 9H23V8H3V17C3 17.6 3.4 18 4 18V19C4 21.8 6.2 24 9 24H17C19.8 24 22 21.8 22 19V18C22.6 18 23 17.6 23 17H25C27.2 17 29 15.2 29 13C29 10.8 27.2 9 25 9ZM20 19C20 20.7 18.7 22 17 22H9C7.3 22 6 20.7 6 19V18H20V19ZM21 16H5V10H21V16ZM25 15C23.9 15 23 14.1 23 13C23 11.9 23.9 11 25 11C26.1 11 27 11.9 27 13C27 14.1 26.1 15 25 15Z" fill="#15171B"/>
<path opacity="0.2" fill-rule="evenodd" clip-rule="evenodd" d="M21 10H15V16H21V10ZM15 19L10.5 18H20V19C20 20.6569 18.6569 22 17 22H14C15 22 15 21 15 21V19Z" fill="#15171B"/>
</svg>
